<?xml version="1.0" ?><!-- Uploaded to: SVG Repo, www.svgrepo.com, Generator: SVG Repo Mixer Tools -->
<svg width="800px" height="800px" viewBox="0 0 24 24" data-name="025_SCIENCE" id="_025_SCIENCE" xmlns="http://www.w3.org/2000/svg"><defs><style>.cls-1{fill:#333;}</style></defs><path class="cls-1" d="M15,22H3a1,1,0,0,1-1-1V9A1,1,0,0,1,3,8H15a1,1,0,0,1,1,1V21A1,1,0,0,1,15,22ZM4,20H14V10H4Z"/><path class="cls-1" d="M15,10a1,1,0,0,1-.77-.36,1,1,0,0,1,.13-1.41L18.24,5H9.36L3.64,9.77A1,1,0,1,1,2.36,8.23l6-5A1,1,0,0,1,9,3H21a1,1,0,0,1,.94.66,1,1,0,0,1-.3,1.11l-6,5A1,1,0,0,1,15,10Z"/><path class="cls-1" d="M15,22a1,1,0,0,1-.77-.36,1,1,0,0,1,.13-1.41L20,15.53V4a1,1,0,0,1,2,0V16a1,1,0,0,1-.36.77l-6,5A1,1,0,0,1,15,22Z"/><path class="cls-1" d="M16,17H9a1,1,0,0,1-1-1V5a1,1,0,0,1,2,0V15h6a1,1,0,0,1,0,2Z"/><path class="cls-1" d="M6.6,19a1,1,0,0,1-.77-.36A1,1,0,0,1,6,17.23l2.4-2a1,1,0,1,1,1.28,1.54l-2.4,2A1,1,0,0,1,6.6,19Z"/></svg>